<?xml version="1.0" standalone="no"?><!DOCTYPE svg PUBLIC "-//W3C//DTD SVG 1.1//EN" "http://www.w3.org/Graphics/SVG/1.1/DTD/svg11.dtd"><svg class="icon" width="200px" height="200.00px" viewBox="0 0 1024 1024" version="1.1" xmlns="http://www.w3.org/2000/svg"><path d="M806.5 437.6H646.2c-9.9 0-17.8-10.8-17.8-20.7 0-9.9 7.9-20.7 17.8-20.7h160.4c9.9 0 17.8 10.8 17.8 20.7-0.1 9.9-8.1 20.7-17.9 20.7zM806.5 566.6H646.2c-9.9 0-17.8-10.8-17.8-20.7 0-9.9 7.9-20.7 17.8-20.7h160.4c9.9 0 17.8 10.8 17.8 20.7-0.1 9.9-8.1 20.7-17.9 20.7z" fill="#30A6FF" /><path d="M415.495 654.845v247.4h-178.8v-247.4z" fill="#97D2FF" /><path d="M415.2 473.3H237.1c-9.9 0-17.8-10.8-17.8-20.7 0-9.8 7.9-20.7 17.8-20.7h178.1c9.9 0 17.8 10.8 17.8 20.7 0 9.9-8 20.7-17.8 20.7zM415.2 313H237.1c-9.9 0-17.8-10.8-17.8-20.7 0-9.8 7.9-20.7 17.8-20.7h178.1c9.9 0 17.8 10.8 17.8 20.7 0 9.9-8 20.7-17.8 20.7zM431.4 912.8H385V681.3c0-9.8 2.7-8.1-7.1-8.1H271.1c-9.8 0-8-1.7-8 8.1v231.5h-45.4V681.3c0-29.5 24-53.5 53.5-53.5H378c29.5 0 53.5 24 53.5 53.5v231.5h-0.1z" fill="#30A6FF" /><path d="M556.1 930.6h-463c-9.9 0-17.8-7.9-17.8-17.8V164.6c0-49.1 40-89.1 89.1-89.1h320.5c49.1 0 89.1 40 89.1 89.1v748.1c-0.1 10-8.1 17.9-17.9 17.9z m-435.5-46.4h407V164.6c0-29.5-13.3-43.7-42.7-43.7H164.3c-29.5 0-43.7 14.3-43.7 43.7v719.6z m-9.7 10.8" fill="#30A6FF" /><path d="M930.2 351.8c0-49.1-40-89.1-89.1-89.1h-285v46.4H841c29.5 0 42.7 13.3 42.7 42.7v288.9c25 30.6 46 69.6 46 112.2M752.3 930.3c-43.2 0-82.7-20.4-113.5-46.1h-82.7v46.4" fill="#30A6FF" /><path d="M771.4 593.6C673.4 593.6 594 673 594 771s79.4 177.4 177.4 177.4S948.8 869 948.8 771s-79.5-177.4-177.4-177.4z m0 314.2c-75.5 0-136.8-61.2-136.8-136.8s61.2-136.8 136.8-136.8S908.1 695.5 908.1 771s-61.2 136.8-136.7 136.8z" fill="#30A6FF" /><path d="M874.314 752.846l-20.855 23.472-81.627-72.53 20.855-23.472z" fill="#97D2FF" /><path d="M764.2 790.8l10.9-12.3c0.7-0.8 1.1-1.9 1-3-0.1-1.1-0.6-2.1-1.4-2.8l-55.2-49.1c-1.6-1.4-2.6-3.5-2.7-5.6-0.1-2.2 0.6-4.3 2.1-5.9l38.2-43c3-3.4 8.2-3.7 11.6-0.7l12.3 10.9 8.2-9.2c1.4-1.6 3.5-2.6 5.7-2.8 2.2-0.1 4.3 0.6 5.9 2.1l85.9 76.3c3.4 3 3.7 8.2 0.7 11.6l-27.2 30.6c-1.4 1.6-3.5 2.6-5.7 2.8-2.2 0.1-4.3-0.6-5.9-2.1l-85.9-76.3c-1.6-1.4-2.6-3.5-2.7-5.7-0.1-2.2 0.6-4.3 2.1-5.9l8.2-9.2-3.1-2.8c-1.7-1.5-4.3-1.3-5.7 0.4l-21.8 24.6c-1.5 1.7-1.4 4.2 0.4 5.8l55.2 49.1c1.6 1.5 2.6 3.5 2.7 5.7 0.1 2.2-0.6 4.3-2.1 5.9l-19.1 21.4 3.1 2.7c3.4 3 3.7 8.2 0.7 11.6L736.9 865c-3 3.4-8.1 3.7-11.6 0.7l-18.4-16.4c-3.4-3-3.7-8.2-0.7-11.6l43.7-49.1c3-3.4 8.1-3.7 11.6-0.7l2.7 2.9z m23.8-88.6c-0.7 0.8-1.1 1.9-1.1 3 0.1 1.1 0.6 2.1 1.4 2.8l61.3 54.5c0.8 0.7 1.9 1.1 3 1 1.1-0.1 2.1-0.6 2.8-1.4l5.4-6.1c0.7-0.8 1.1-1.9 1.1-3-0.1-1.1-0.6-2.1-1.4-2.8l-61.3-54.5c-0.8-0.7-1.9-1.1-3-1-1.1 0.1-2.1 0.6-2.8 1.4l-5.4 6.1z m91 64.4l6.1 5.5c1.7 1.5 1.9 4.1 0.3 5.8L880 784c-1.5 1.7-4.1 1.9-5.8 0.4l-6.1-5.5 10.9-12.3z m-150.2 80.6c1.7 1.5 4.3 1.3 5.8-0.3l27.2-30.7c1.5-1.7 1.4-4.3-0.3-5.8l-4.1-3.6c-1.7-1.5-4.3-1.3-5.8 0.3l-27.2 30.7c-1.5 1.7-1.4 4.3 0.3 5.8l4.1 3.6z m0 0" fill="#30A6FF" /></svg>